<?xml version="1.0" encoding="utf-8"?>
<!-- Generator: Adobe Illustrator 24.2.0, SVG Export Plug-In . SVG Version: 6.00 Build 0)  -->
<svg version="1.1" id="Layer_1" xmlns="http://www.w3.org/2000/svg" xmlns:xlink="http://www.w3.org/1999/xlink" x="0px" y="0px"
	 viewBox="0 0 2500 2500" style="enable-background:new 0 0 2500 2500;" xml:space="preserve">
<style type="text/css">
	.st0{fill:#22BBF1;}
	.st1{fill:#FBDC00;}
	.st2{fill:#FC2F8C;}
	.st3{fill:#313333;}
</style>
<g>
	<g>
		<path class="st0" d="M291.89,1792.23L291.89,1792.23C130.68,1792.23,0,1661.55,0,1500.34v-474.89
			c0-56.29,45.63-101.93,101.93-101.93h207.33c151.61,0,274.51,122.9,274.51,274.51v302.31
			C583.77,1661.55,453.09,1792.23,291.89,1792.23z"/>
		<path class="st1" d="M492.27,1548.99L492.27,1548.99c-161.2,0-291.89-130.68-291.89-291.89V782.21
			c0-56.29,45.63-101.93,101.93-101.93h207.33c151.61,0,274.51,122.9,274.51,274.51v302.31
			C784.15,1418.31,653.47,1548.99,492.27,1548.99z"/>
		<path class="st2" d="M583.77,1198.04v302.28c0,11.72-0.71,23.31-2.09,34.68c-28.15,9.1-58.21,13.99-89.42,13.99
			c-161.22,0-291.89-130.67-291.89-291.89V923.51h108.87C460.87,923.51,583.77,1046.41,583.77,1198.04z"/>
	</g>
	<g>
		<g>
			<path class="st3" d="M1343.7,1156.17c0,42.98-16.92,83.93-44.21,106.88c-45,38.6-78.46,42.23-155.79,42.23H992.76
				c-3.42,0-6.19-2.77-6.19-6.19V823.27c0-3.33,2.7-6.03,6.03-6.03h169.66c50.99,0,95.24,12.05,121.4,33.07l0.06,0.05l0.06,0.05
				c27.99,21.32,42.79,54.4,42.79,95.66c0,34.01-18.17,67.26-49.85,91.23c-3.53,2.67-2.97,8.14,1.04,10.04
				C1321.51,1068,1343.7,1104.62,1343.7,1156.17z M1226.04,1148.79c0-17.98-8.35-30.24-24.72-36.41
				c-12.74-5.04-28.66-5.04-38.18-5.04h-53.7c-3.31,0-5.99,2.68-5.99,5.99v75.04c0,3.36,2.72,6.08,6.08,6.08h53.61
				c7.65,0,23.55,0,36.68-5.55C1216.97,1181.97,1226.04,1168.1,1226.04,1148.79z M1103.91,1006.46c0,3.31,2.68,6,6,6h38.49
				c7.63,0,23.51,0,36.6-5.3c17.2-6.66,26.29-20.03,26.29-38.68c0-17.37-8.37-29.2-24.8-35.13c-12.7-4.81-28.6-4.81-38.1-4.81
				h-38.39c-3.37,0-6.1,2.73-6.1,6.1V1006.46z"/>
			<path class="st3" d="M1745.17,1296.43c1.7,3.9-1.16,8.26-5.41,8.26h-122.11c-2.35,0-4.47-1.39-5.41-3.54l-63.83-146.28
				c-0.94-2.15-3.06-3.54-5.41-3.54h-19.54c-3.26,0-5.9,2.64-5.9,5.9v140.05c0,3.26-2.64,5.9-5.9,5.9h-112.45
				c-3.26,0-5.9-2.64-5.9-5.9V821.04c0-3.26,2.64-5.9,5.9-5.9h150.59c87.07,0,120.76,13.67,146.88,35.71
				c35.79,30.32,56.32,77.62,56.32,129.76c0,50.5-20.31,102.11-50.52,128.42c-9.05,7.8-17.1,13.75-25.33,18.7
				c-2.54,1.53-3.55,4.7-2.37,7.41L1745.17,1296.43z M1633.86,982.58c0-23.86-9.48-39.56-29-48.02c-16.35-7.07-36.18-7.07-49.3-7.07
				h-32.09c-3.26,0-5.9,2.64-5.9,5.9v99.71c0,3.26,2.64,5.9,5.9,5.9h36.58c11.36,0,30.38,0,46.08-7.06
				C1629.04,1021.6,1633.86,999.39,1633.86,982.58z"/>
			<path class="st3" d="M1936.9,823v475.79c0,3.38-2.74,6.12-6.12,6.12h-112.01c-3.38,0-6.12-2.74-6.12-6.12V823
				c0-3.38,2.74-6.12,6.12-6.12h112.01C1934.16,816.88,1936.9,819.62,1936.9,823z"/>
			<path class="st3" d="M2500,1059.6c0,141.52-112.48,256.66-250.73,256.66c-138.25,0-250.73-115.14-250.73-256.66
				s112.48-256.66,250.73-256.66C2387.52,802.94,2500,918.07,2500,1059.6z M2386.43,1059.6c0-77.3-61.53-140.2-137.16-140.2
				s-137.16,62.89-137.16,140.2c0,77.3,61.53,140.2,137.16,140.2S2386.43,1136.9,2386.43,1059.6z"/>
		</g>
		<g>
			<path class="st3" d="M1189.21,1608.85h-25.17l-23.26-57.06h-101.4l-23.12,57.06h-24.43l84.13-204.84h29.12L1189.21,1608.85z
				 M1048.46,1529.55h83.4l-41.7-102.27L1048.46,1529.55z"/>
			<path class="st3" d="M1329.67,1486.24l-88.37,102.86h89.69v19.75h-118.66v-15.8l89.25-103h-86.62v-19.75h114.71V1486.24z"/>
			<path class="st3" d="M1493.98,1539.06c0,2.78-0.15,5.71-0.44,8.19h-111.05c3.07,29.85,24,45.21,49.01,45.21
				c17.12,0,32.04-6.58,43.89-17.41l11.71,14.92c-17.27,16.53-36.58,21.65-56.92,21.65c-40.97,0-70.08-29.12-70.08-71.99
				c0-42.43,29.26-72.13,68.77-72.13C1466.47,1467.51,1493.69,1496.92,1493.98,1539.06z M1382.78,1529.55h88.96
				c-2.78-25.9-19.75-42.58-43.31-42.58C1402.83,1486.97,1386.29,1504.53,1382.78,1529.55z"/>
			<path class="st3" d="M1622.88,1472.2l-5.27,21.51c-6.73-3.66-15.95-5.56-24-5.56c-21.65,0-37.16,16.97-37.16,43.16v77.55h-21.8
				v-138.56h21.65v19.46c9.51-14.19,24.14-22.24,41.11-22.24C1607.37,1467.51,1615.56,1468.83,1622.88,1472.2z"/>
			<path class="st3" d="M1797.72,1539.5c0,41.7-30.29,72.13-69.21,72.13c-22.83,0-39.5-9.22-50.48-23.26v20.48h-21.95v-210.69h21.95
				v92.62c10.97-14.05,27.65-23.26,50.48-23.26C1767.43,1467.51,1797.72,1497.95,1797.72,1539.5z M1676.57,1539.5
				c0,29.41,20.34,51.65,49.31,51.65c29.7,0,49.45-22.97,49.45-51.65c0-28.53-20.05-51.5-49.45-51.5
				C1696.91,1488,1676.57,1510.24,1676.57,1539.5z"/>
			<path class="st3" d="M1969.48,1608.85h-21.8v-20.63c-10.97,14.19-27.8,23.41-50.62,23.41c-38.92,0-69.21-30.43-69.21-72.13
				c0-41.55,30.29-71.99,69.21-71.99c22.82,0,39.65,9.36,50.62,23.41v-20.63h21.8V1608.85z M1850.09,1539.5
				c0,28.68,20.19,51.65,49.6,51.65c28.82,0,49.31-22.24,49.31-51.65c0-29.26-20.48-51.5-49.31-51.5
				C1869.99,1488,1850.09,1510.97,1850.09,1539.5z"/>
			<path class="st3" d="M2047.17,1421.13c0,8.78-6.88,15.36-15.51,15.36c-8.78,0-15.36-6.58-15.36-15.36s6.58-15.51,15.36-15.51
				C2040.29,1405.62,2047.17,1412.35,2047.17,1421.13z M2042.63,1608.85h-21.95v-138.56h21.95V1608.85z"/>
			<path class="st3" d="M2116.38,1631.68c0,24.58-13.61,37.9-34.53,37.9c-7.17,0-14.92-1.9-19.9-4.68l5.27-18.87
				c3.51,1.76,8.05,2.93,12.73,2.93c8.93,0,14.48-5.56,14.48-18.29v-160.36h21.95V1631.68z M2120.77,1421.13
				c0,8.78-6.88,15.36-15.51,15.36c-8.78,0-15.36-6.58-15.36-15.36s6.58-15.51,15.36-15.51
				C2113.89,1405.62,2120.77,1412.35,2120.77,1421.13z"/>
			<path class="st3" d="M2298.68,1608.85h-21.8v-20.63c-10.97,14.19-27.8,23.41-50.62,23.41c-38.92,0-69.21-30.43-69.21-72.13
				c0-41.55,30.29-71.99,69.21-71.99c22.82,0,39.65,9.36,50.62,23.41v-20.63h21.8V1608.85z M2179.29,1539.5
				c0,28.68,20.19,51.65,49.6,51.65c28.82,0,49.31-22.24,49.31-51.65c0-29.26-20.48-51.5-49.31-51.5
				C2199.19,1488,2179.29,1510.97,2179.29,1539.5z"/>
			<path class="st3" d="M2476.01,1522.97v85.89h-21.8v-78.72c0-26.34-14.63-41.85-39.94-41.85c-23.26,0-42.43,16.09-42.43,42.43
				v78.13h-21.95v-138.56h21.65v19.75c11.27-16.53,29.7-22.53,46.67-22.53C2452.45,1467.51,2476.01,1489.46,2476.01,1522.97z"/>
		</g>
	</g>
</g>
</svg>
